<svg xmlns="http://www.w3.org/2000/svg" xmlns:xlink="http://www.w3.org/1999/xlink" width="22.0023193359375" height="24.0029296875" viewBox="0 0 22.0023193359375 24.0029296875" fill="none">
<path d="M12.1982 0.84375C11.9773 0.328125 11.5107 0 10.9982 0C10.4857 0 10.0232 0.328125 9.79817 0.84375L7.119 7.04531L1.13568 8.03906C0.635683 8.12344 0.219018 8.51719 0.0648521 9.05625C-0.0893146 9.59531 0.0356852 10.1906 0.394018 10.5891L4.73567 15.4219L3.71068 22.2516C3.62735 22.8141 3.83568 23.3859 4.24817 23.7187C4.66067 24.0516 5.2065 24.0937 5.6565 23.8266L11.0023 20.6156L16.3482 23.8266C16.7982 24.0937 17.344 24.0562 17.7565 23.7187C18.169 23.3812 18.3773 22.8141 18.294 22.2516L17.2648 15.4219L21.6065 10.5891C21.9648 10.1906 22.094 9.59531 21.9357 9.05625C21.7773 8.51719 21.3648 8.12344 20.8648 8.03906L14.8773 7.04531L12.1982 0.84375Z"   fill="#FFC0CB" >
</path>
</svg>
